<?xml version="1.0"?>
<svg xmlns="http://www.w3.org/2000/svg" xmlns:xlink="http://www.w3.org/1999/xlink" version="1.1" id="Capa_1" x="0px" y="0px" width="512px" height="512px" viewBox="0 0 612 612" style="enable-background:new 0 0 612 612;" xml:space="preserve" class=""><g><g>
	<g id="_x31_0_41_">
		<g>
			<path d="M415.338,196.662c-7.535-7.535-19.737-7.535-27.253,0l-82.181,82.18l-81.033-81.032c-7.478-7.478-19.584-7.478-27.042,0     c-7.478,7.478-7.478,19.584,0,27.042l81.033,81.033l-81.587,81.587c-7.535,7.535-7.535,19.736,0,27.253s19.737,7.517,27.253,0     l81.588-81.587l81.032,81.032c7.478,7.478,19.584,7.478,27.043,0c7.478-7.478,7.478-19.584,0-27.043l-81.033-81.032l82.181-82.18     C422.873,216.399,422.873,204.179,415.338,196.662z M306,0C136.992,0,0,136.992,0,306s136.992,306,306,306     c168.988,0,306-137.012,306-306S475.008,0,306,0z M306,573.75C158.125,573.75,38.25,453.875,38.25,306     C38.25,158.125,158.125,38.25,306,38.25c147.875,0,267.75,119.875,267.75,267.75C573.75,453.875,453.875,573.75,306,573.75z" data-original="#000000" class="active-path" data-old_color="#000000" fill="#FFFFFF"/>
		</g>
	</g>
</g></g> </svg>
